<?xml version="1.0" encoding="utf-8"?>
<!-- Generator: Adobe Illustrator 17.0.2, SVG Export Plug-In . SVG Version: 6.00 Build 0)  -->
<!DOCTYPE svg PUBLIC "-//W3C//DTD SVG 1.1//EN" "http://www.w3.org/Graphics/SVG/1.1/DTD/svg11.dtd">
<svg version="1.1" id="Layer_1" xmlns="http://www.w3.org/2000/svg" xmlns:xlink="http://www.w3.org/1999/xlink" x="0px" y="0px"
	 width="612px" height="1008px" viewBox="0 0 612 1008" enable-background="new 0 0 612 1008" xml:space="preserve">
<path fill="none" stroke="#333333" stroke-miterlimit="10" d="M295.638,507.866c-1.757-3.21-2.329-6.293-1.75-9.422
	c1.07-5.78,6.396-10.14,12.386-10.14c1.671,0,3.295,0.339,4.825,1.008c3.301,1.443,5.763,4.051,6.93,7.342
	c1.185,3.338,0.906,6.979-0.783,10.25c-1.253,2.422-2.444,5.005-3.642,7.896c-1.396,3.366-2.108,6.271-2.246,9.146
	c-0.034,0.736-0.086,1.283-0.171,1.772c0,0.001,0,0.003,0,0.003c-0.019,0.001-0.035,0.001-0.055,0.001l-1.615-0.027v0.03h-8.269
	c-0.011,0.002-0.022,0-0.034,0c-0.026-0.13-0.059-0.33-0.092-0.64c-0.005-0.037-0.005-0.074-0.007-0.11
	c-0.005-0.123-0.013-0.244-0.028-0.365c-0.064-0.479-0.117-0.957-0.169-1.438c-0.121-1.126-0.248-2.292-0.526-3.448
	C299.479,515.92,297.923,512.041,295.638,507.866z"/>
<line fill="none" stroke="#333333" stroke-linecap="round" stroke-miterlimit="10" x1="298.855" y1="531" x2="313.568" y2="531"/>
<line fill="none" stroke="#333333" stroke-linecap="round" stroke-miterlimit="10" x1="301.667" y1="535.167" x2="310.333" y2="535.167"/>
<line fill="none" stroke="#333333" stroke-linecap="round" stroke-miterlimit="10" x1="327.764" y1="498.712" x2="339" y2="498.712"/>
<line fill="none" stroke="#333333" stroke-linecap="round" stroke-miterlimit="10" x1="273.333" y1="498.712" x2="284.631" y2="498.712"/>
<line fill="none" stroke="#333333" stroke-linecap="round" stroke-miterlimit="10" x1="306.211" y1="467.856" x2="306.211" y2="479.153"/>
<line fill="none" stroke="#333333" stroke-linecap="round" stroke-miterlimit="10" x1="329.327" y1="476.8" x2="321.339" y2="484.789"/>
<line fill="none" stroke="#333333" stroke-linecap="round" stroke-miterlimit="10" x1="283.08" y1="476.8" x2="291.068" y2="484.789"/>
</svg>
