<?xml version="1.0" encoding="utf-8"?>
<!-- Generator: Adobe Illustrator 17.0.2, SVG Export Plug-In . SVG Version: 6.00 Build 0)  -->
<!DOCTYPE svg PUBLIC "-//W3C//DTD SVG 1.1//EN" "http://www.w3.org/Graphics/SVG/1.1/DTD/svg11.dtd">
<svg version="1.1" id="Layer_1" xmlns="http://www.w3.org/2000/svg" xmlns:xlink="http://www.w3.org/1999/xlink" x="0px" y="0px"
	 width="612px" height="1008px" viewBox="0 0 612 1008" enable-background="new 0 0 612 1008" xml:space="preserve">
<path fill="none" stroke="#333333" stroke-width="2" stroke-miterlimit="10" d="M273.567,439.135h-1.42
	c0.336-2.053,0.519-4.158,0.519-6.306c0-21.395-17.344-38.739-38.739-38.739c-16.353,0-30.33,10.138-36.013,24.468
	c-3.796-2.913-8.543-4.648-13.697-4.648c-12.439,0-22.523,10.084-22.523,22.523c0,1.069,0.08,2.119,0.224,3.148
	c-15.369,2.548-27.09,15.895-27.09,31.987c0,17.912,14.521,32.433,32.433,32.433h106.307C291.479,504,306,489.479,306,471.567
	S291.479,439.135,273.567,439.135z"/>
</svg>
